<mxfile host="app.diagrams.net" modified="2020-12-16T07:44:28.546Z" agent="5.0 (Macintosh; Intel Mac OS X 10_15_4) AppleWebKit/537.36 (KHTML, like Gecko) Chrome/87.0.4280.88 Safari/537.36" etag="_gODvx-1VtBM6zng01pU" version="14.0.3" type="github">
  <diagram id="xUHhYSMgkNHKWiF-0Hop" name="Page-1">
    <mxGraphModel dx="2253" dy="714" grid="1" gridSize="10" guides="1" tooltips="1" connect="1" arrows="1" fold="1" page="1" pageScale="1" pageWidth="827" pageHeight="1169" math="0" shadow="0">
      <root>
        <mxCell id="0" />
        <mxCell id="1" parent="0" />
        <mxCell id="vlLqHwzeVavDZOC4SfYF-1" value="from/block" style="rounded=0;whiteSpace=wrap;html=1;fillColor=#ffe6cc;strokeColor=#d79b00;" vertex="1" parent="1">
          <mxGeometry x="80" y="90" width="800" height="40" as="geometry" />
        </mxCell>
        <mxCell id="vlLqHwzeVavDZOC4SfYF-2" value="" style="shape=flexArrow;endArrow=classic;html=1;" edge="1" parent="1">
          <mxGeometry width="50" height="50" relative="1" as="geometry">
            <mxPoint x="30" y="90" as="sourcePoint" />
            <mxPoint x="30" y="1050" as="targetPoint" />
          </mxGeometry>
        </mxCell>
        <mxCell id="vlLqHwzeVavDZOC4SfYF-3" value="refer" style="rounded=0;whiteSpace=wrap;html=1;fillColor=#dae8fc;strokeColor=#6c8ebf;" vertex="1" parent="1">
          <mxGeometry x="80" y="240" width="800" height="40" as="geometry" />
        </mxCell>
        <mxCell id="vlLqHwzeVavDZOC4SfYF-4" value="服务端tp" style="rounded=0;whiteSpace=wrap;html=1;fillColor=#f8cecc;strokeColor=#b85450;" vertex="1" parent="1">
          <mxGeometry x="80" y="453" width="800" height="40" as="geometry" />
        </mxCell>
        <mxCell id="vlLqHwzeVavDZOC4SfYF-5" value="时间" style="text;html=1;strokeColor=none;fillColor=none;align=center;verticalAlign=middle;whiteSpace=wrap;rounded=0;" vertex="1" parent="1">
          <mxGeometry x="-40" y="610" width="40" height="20" as="geometry" />
        </mxCell>
        <mxCell id="vlLqHwzeVavDZOC4SfYF-6" value="客户端tp" style="rounded=0;whiteSpace=wrap;html=1;fillColor=#e1d5e7;strokeColor=#9673a6;" vertex="1" parent="1">
          <mxGeometry x="80" y="680" width="800" height="40" as="geometry" />
        </mxCell>
        <mxCell id="vlLqHwzeVavDZOC4SfYF-7" value="&lt;pre style=&quot;box-sizing: border-box ; font-size: 14px ; background-color: rgb(255 , 255 , 255) ; font-family: &amp;#34;pingfang sc&amp;#34; , &amp;#34;microsoft yahei&amp;#34; &amp;#34;important&amp;#34; ; overflow-wrap: break-word ; word-break: break-all ; padding: 0px ; margin-top: 0px ; margin-bottom: 0px ; background-image: none ; border: none ; color: rgb(50 , 120 , 251)&quot;&gt;&lt;span style=&quot;font-family: &amp;#34;helvetica&amp;#34; ; white-space: normal&quot;&gt;urlinfo:&lt;/span&gt;&lt;/pre&gt;&lt;pre style=&quot;box-sizing: border-box ; font-size: 14px ; background-color: rgb(255 , 255 , 255) ; overflow-wrap: break-word ; word-break: break-all ; padding: 0px ; margin-top: 0px ; margin-bottom: 0px ; background-image: none ; border: none&quot;&gt;&lt;span style=&quot;font-family: &amp;#34;helvetica&amp;#34; ; white-space: normal&quot;&gt;&lt;font color=&quot;#3278fb&quot;&gt;shihuo://www.shihuo.cn?&lt;/font&gt;&lt;font color=&quot;#cc0000&quot;&gt;route&lt;/font&gt;&lt;font color=&quot;#3278fb&quot;&gt;=shoesChannel&amp;amp;&lt;/font&gt;&lt;/span&gt;&lt;font color=&quot;#3278fb&quot;&gt;&lt;br&gt;&lt;/font&gt;&lt;/pre&gt;&lt;pre style=&quot;box-sizing: border-box ; font-size: 14px ; background-color: rgb(255 , 255 , 255) ; overflow-wrap: break-word ; word-break: break-all ; padding: 0px ; margin-top: 0px ; margin-bottom: 0px ; background-image: none ; border: none&quot;&gt;&lt;code style=&quot;color: rgb(50 , 120 , 251) ; box-sizing: border-box ; overflow-wrap: break-word ; word-break: break-all ; padding: 0px ; margin: 0px ; background: none ; border: none&quot;&gt;channelType=shoes&amp;amp;gender=1&amp;amp;type=1&lt;/code&gt;&lt;font color=&quot;#3278fb&quot;&gt;&amp;amp;fromRequestId=99d4bfbeafcef053&lt;/font&gt;&lt;span style=&quot;color: rgb(50 , 120 , 251) ; font-family: &amp;#34;helvetica&amp;#34; ; white-space: normal&quot;&gt;&amp;amp;&lt;/span&gt;&lt;span style=&quot;font-family: &amp;#34;helvetica&amp;#34; ; white-space: normal&quot;&gt;&lt;font color=&quot;#cc0000&quot;&gt;lspm&lt;/font&gt;&lt;/span&gt;&lt;span style=&quot;color: rgb(50 , 120 , 251) ; font-family: &amp;#34;helvetica&amp;#34; ; white-space: normal&quot;&gt;=4b6787ab542c5652&lt;/span&gt;&lt;font color=&quot;#3278fb&quot;&gt;#{&quot;&lt;/font&gt;&lt;font color=&quot;#cc0000&quot;&gt;lspm&lt;/font&gt;&lt;font color=&quot;#3278fb&quot;&gt;&quot;:&lt;/font&gt;&lt;/pre&gt;&lt;pre style=&quot;box-sizing: border-box ; font-size: 14px ; background-color: rgb(255 , 255 , 255) ; overflow-wrap: break-word ; word-break: break-all ; padding: 0px ; margin-top: 0px ; margin-bottom: 0px ; background-image: none ; border: none&quot;&gt;&lt;font color=&quot;#3278fb&quot;&gt;&quot;4b6787ab542c5652&quot;,&lt;/font&gt;&lt;code style=&quot;white-space: normal ; box-sizing: border-box ; overflow-wrap: break-word ; word-break: break-all ; padding: 0px ; margin: 0px ; background: none ; border: none&quot;&gt;&lt;font color=&quot;#3278fb&quot;&gt;&quot;&lt;/font&gt;&lt;font color=&quot;#ff0080&quot;&gt;from&lt;/font&gt;&lt;font color=&quot;#3278fb&quot;&gt;&quot;:&quot;home&quot;,&quot;&lt;/font&gt;&lt;font color=&quot;#ff0080&quot;&gt;block&lt;/font&gt;&lt;font color=&quot;#3278fb&quot;&gt;&quot;:&quot;shoes&quot;,&quot;extra&quot;:&quot;&quot;}&lt;/font&gt;&lt;/code&gt;&lt;/pre&gt;" style="rounded=0;whiteSpace=wrap;html=1;align=left;" vertex="1" parent="1">
          <mxGeometry x="80" y="130" width="800" height="90" as="geometry" />
        </mxCell>
        <mxCell id="vlLqHwzeVavDZOC4SfYF-8" value="使用中" style="text;html=1;strokeColor=none;fillColor=none;align=center;verticalAlign=middle;whiteSpace=wrap;rounded=0;" vertex="1" parent="1">
          <mxGeometry x="830" y="100" width="40" height="20" as="geometry" />
        </mxCell>
        <mxCell id="vlLqHwzeVavDZOC4SfYF-9" value="将废弃" style="text;html=1;strokeColor=none;fillColor=none;align=center;verticalAlign=middle;whiteSpace=wrap;rounded=0;" vertex="1" parent="1">
          <mxGeometry x="830" y="250" width="40" height="20" as="geometry" />
        </mxCell>
        <mxCell id="vlLqHwzeVavDZOC4SfYF-12" value="&lt;pre style=&quot;box-sizing: border-box ; font-size: 14px ; background-color: rgb(255 , 255 , 255) ; font-family: &amp;#34;pingfang sc&amp;#34; , &amp;#34;microsoft yahei&amp;#34; &amp;#34;important&amp;#34; ; overflow-wrap: break-word ; word-break: break-all ; padding: 0px ; margin-top: 0px ; margin-bottom: 0px ; background-image: none ; border: none ; color: rgb(50 , 120 , 251)&quot;&gt;&lt;span style=&quot;font-family: &amp;#34;helvetica&amp;#34;&quot;&gt;urlinfo:&lt;/span&gt;&lt;/pre&gt;&lt;pre style=&quot;box-sizing: border-box ; font-size: 14px ; background-color: rgb(255 , 255 , 255) ; font-family: &amp;#34;pingfang sc&amp;#34; , &amp;#34;microsoft yahei&amp;#34; &amp;#34;important&amp;#34; ; overflow-wrap: break-word ; word-break: break-all ; padding: 0px ; margin-top: 0px ; margin-bottom: 0px ; background-image: none ; border: none ; color: rgb(50 , 120 , 251)&quot;&gt;&lt;span style=&quot;font-family: &amp;#34;helvetica&amp;#34;&quot;&gt;shihuo://www.shihuo.cn?route=shoesChannel&amp;amp;&lt;/span&gt;&lt;br&gt;&lt;/pre&gt;&lt;pre style=&quot;box-sizing: border-box ; font-size: 14px ; background-color: rgb(255 , 255 , 255) ; overflow-wrap: break-word ; word-break: break-all ; padding: 0px ; margin-top: 0px ; margin-bottom: 0px ; background-image: none ; border: none&quot;&gt;&lt;code style=&quot;color: rgb(50 , 120 , 251) ; box-sizing: border-box ; overflow-wrap: break-word ; word-break: break-all ; padding: 0px ; margin: 0px ; background: none ; border: none&quot;&gt;channelType=shoes&amp;amp;gender=1&amp;amp;type=1&lt;/code&gt;&lt;font color=&quot;#3278fb&quot;&gt;&amp;amp;fromRequestId=99d4bfbeafcef053&lt;/font&gt;&lt;span style=&quot;color: rgb(50 , 120 , 251) ; font-family: &amp;#34;helvetica&amp;#34;&quot;&gt;&amp;amp;&lt;/span&gt;&lt;/pre&gt;&lt;pre style=&quot;box-sizing: border-box ; font-size: 14px ; background-color: rgb(255 , 255 , 255) ; overflow-wrap: break-word ; word-break: break-all ; padding: 0px ; margin-top: 0px ; margin-bottom: 0px ; background-image: none ; border: none&quot;&gt;&lt;span style=&quot;color: rgb(50 , 120 , 251) ; font-family: &amp;#34;helvetica&amp;#34;&quot;&gt;lspm=4b6787ab542c5652&lt;/span&gt;&lt;font color=&quot;#3278fb&quot;&gt;#{&quot;lspm&quot;:&quot;4b6787ab542c5652&quot;,&lt;/font&gt;&lt;code style=&quot;box-sizing: border-box ; overflow-wrap: break-word ; word-break: break-all ; padding: 0px ; margin: 0px ; background: none ; border: none&quot;&gt;&lt;font color=&quot;#3278fb&quot;&gt;&quot;&lt;/font&gt;&lt;font color=&quot;#ff0080&quot;&gt;from&lt;/font&gt;&lt;font color=&quot;#3278fb&quot;&gt;&quot;:&quot;home&quot;,&quot;&lt;/font&gt;&lt;font color=&quot;#ff0080&quot;&gt;block&lt;/font&gt;&lt;font color=&quot;#3278fb&quot;&gt;&quot;:&quot;shoes&quot;&lt;/font&gt;&lt;/code&gt;&lt;/pre&gt;&lt;pre style=&quot;box-sizing: border-box ; font-size: 14px ; background-color: rgb(255 , 255 , 255) ; overflow-wrap: break-word ; word-break: break-all ; padding: 0px ; margin-top: 0px ; margin-bottom: 0px ; background-image: none ; border: none&quot;&gt;&lt;code style=&quot;box-sizing: border-box ; overflow-wrap: break-word ; word-break: break-all ; padding: 0px ; margin: 0px ; background: none ; border: none&quot;&gt;&lt;font color=&quot;#3278fb&quot;&gt;,&quot;extra&quot;:&quot;&quot;&lt;/font&gt;&lt;font face=&quot;helvetica&quot; style=&quot;color: rgb(50 , 120 , 251)&quot;&gt;}&lt;/font&gt;&lt;/code&gt;&lt;/pre&gt;&lt;pre style=&quot;box-sizing: border-box ; font-size: 14px ; background-color: rgb(255 , 255 , 255) ; overflow-wrap: break-word ; word-break: break-all ; padding: 0px ; margin-top: 0px ; margin-bottom: 0px ; background-image: none ; border: none&quot;&gt;&lt;code style=&quot;box-sizing: border-box ; overflow-wrap: break-word ; word-break: break-all ; padding: 0px ; margin: 0px ; background: none ; border: none&quot;&gt;&lt;div class=&quot;dark-keys-color src-components-LogSearch-BaseSearch-RawLog-OriginMode-__keys__1hDhhL&quot; style=&quot;box-sizing: border-box ; display: inline-flex ; color: rgb(51 , 51 , 51) ; font-size: 12px ; background-color: rgba(0 , 86 , 144 , 0.1) ; border-radius: 2px ; margin: 2px 0px ; font-family: &amp;#34;roboto mono&amp;#34; , &amp;#34;consolas&amp;#34; , &amp;#34;menlo&amp;#34; , &amp;#34;courier&amp;#34; , monospace ; padding: 1px 3px&quot;&gt;&lt;br&gt;&lt;span style=&quot;color: rgb(204 , 0 , 0) ; white-space: normal&quot;&gt;refer&lt;/span&gt;&lt;/div&gt;&lt;span style=&quot;color: rgb(55 , 61 , 65) ; font-family: &amp;#34;roboto mono&amp;#34; , &amp;#34;consolas&amp;#34; , &amp;#34;menlo&amp;#34; , &amp;#34;courier&amp;#34; , monospace ; font-size: 12px&quot;&gt;:&quot;&lt;/span&gt;&lt;span class=&quot;normal-column-cell&quot; style=&quot;box-sizing: border-box ; padding: 0px ; color: rgb(55 , 61 , 65) ; font-family: &amp;#34;roboto mono&amp;#34; , &amp;#34;consolas&amp;#34; , &amp;#34;menlo&amp;#34; , &amp;#34;courier&amp;#34; , monospace ; font-size: 12px&quot;&gt;&lt;span style=&quot;box-sizing: border-box ; padding: 0px&quot;&gt;&lt;a class=&quot;link dark-text&quot; style=&quot;box-sizing: border-box ; background-color: transparent ; cursor: pointer ; padding: 0px ; margin: 0px&quot;&gt;&lt;span class=&quot;&quot; style=&quot;box-sizing: border-box ; padding: 0px&quot;&gt;shihuo%3A%2F%2Fwww.shihuo.cn%3Froute%3Dsh_home&quot;&lt;br&gt;&lt;/span&gt;&lt;/a&gt;&lt;/span&gt;&lt;/span&gt;&lt;div class=&quot;dark-keys-color src-components-LogSearch-BaseSearch-RawLog-OriginMode-__keys__1hDhhL&quot; style=&quot;box-sizing: border-box ; display: inline-flex ; font-size: 12px ; background-color: rgba(0 , 86 , 144 , 0.1) ; border-radius: 2px ; margin: 2px 0px ; font-family: &amp;#34;roboto mono&amp;#34; , &amp;#34;consolas&amp;#34; , &amp;#34;menlo&amp;#34; , &amp;#34;courier&amp;#34; , monospace ; padding: 1px 3px&quot;&gt;&lt;font color=&quot;#cc0000&quot;&gt;pid&lt;/font&gt;&lt;/div&gt;&lt;span style=&quot;color: rgb(55 , 61 , 65) ; font-family: &amp;#34;roboto mono&amp;#34; , &amp;#34;consolas&amp;#34; , &amp;#34;menlo&amp;#34; , &amp;#34;courier&amp;#34; , monospace ; font-size: 12px&quot;&gt;:&lt;/span&gt;&lt;span class=&quot;normal-column-cell&quot; style=&quot;box-sizing: border-box ; padding: 0px ; color: rgb(55 , 61 , 65) ; font-family: &amp;#34;roboto mono&amp;#34; , &amp;#34;consolas&amp;#34; , &amp;#34;menlo&amp;#34; , &amp;#34;courier&amp;#34; , monospace ; font-size: 12px&quot;&gt;&lt;span style=&quot;box-sizing: border-box ; padding: 0px&quot;&gt;&lt;a class=&quot;link dark-text&quot; style=&quot;box-sizing: border-box ; background-color: transparent ; cursor: pointer ; padding: 0px ; margin: 0px&quot;&gt;&lt;span class=&quot;&quot; style=&quot;box-sizing: border-box ; padding: 0px&quot;&gt;sh_home_3f7d9261d6b8098ba6cc1d4fcb491f32&lt;/span&gt;&lt;/a&gt;&lt;/span&gt;&lt;/span&gt;&lt;/code&gt;&lt;/pre&gt;&lt;pre style=&quot;box-sizing: border-box ; font-size: 14px ; background-color: rgb(255 , 255 , 255) ; overflow-wrap: break-word ; word-break: break-all ; padding: 0px ; margin-top: 0px ; margin-bottom: 0px ; background-image: none ; border: none&quot;&gt;&lt;code style=&quot;box-sizing: border-box ; overflow-wrap: break-word ; word-break: break-all ; padding: 0px ; margin: 0px ; background: none ; border: none&quot;&gt;&lt;span class=&quot;normal-column-cell&quot; style=&quot;box-sizing: border-box ; padding: 0px ; font-family: &amp;#34;roboto mono&amp;#34; , &amp;#34;consolas&amp;#34; , &amp;#34;menlo&amp;#34; , &amp;#34;courier&amp;#34; , monospace ; font-size: 12px&quot;&gt;&lt;span style=&quot;box-sizing: border-box ; padding: 0px&quot;&gt;&lt;a class=&quot;link dark-text&quot; style=&quot;box-sizing: border-box ; background-color: transparent ; cursor: pointer ; padding: 0px ; margin: 0px&quot;&gt;&lt;span class=&quot;&quot; style=&quot;box-sizing: border-box ; padding: 0px&quot;&gt;&lt;div class=&quot;dark-keys-color src-components-LogSearch-BaseSearch-RawLog-OriginMode-__keys__1hDhhL&quot; style=&quot;box-sizing: border-box ; display: inline-flex ; background-color: rgba(0 , 86 , 144 , 0.1) ; border-radius: 2px ; margin: 2px 0px ; font-family: &amp;#34;roboto mono&amp;#34; , &amp;#34;consolas&amp;#34; , &amp;#34;menlo&amp;#34; , &amp;#34;courier&amp;#34; , monospace ; padding: 1px 3px&quot;&gt;&lt;font color=&quot;#cc0000&quot;&gt;urlinfo_pid&lt;/font&gt;&lt;/div&gt;&lt;span style=&quot;color: rgb(55 , 61 , 65) ; font-family: &amp;#34;roboto mono&amp;#34; , &amp;#34;consolas&amp;#34; , &amp;#34;menlo&amp;#34; , &amp;#34;courier&amp;#34; , monospace&quot;&gt;:&lt;/span&gt;&lt;span class=&quot;normal-column-cell&quot; style=&quot;color: rgb(55 , 61 , 65) ; box-sizing: border-box ; padding: 0px ; font-family: &amp;#34;roboto mono&amp;#34; , &amp;#34;consolas&amp;#34; , &amp;#34;menlo&amp;#34; , &amp;#34;courier&amp;#34; , monospace&quot;&gt;&lt;span style=&quot;box-sizing: border-box ; padding: 0px&quot;&gt;&lt;/span&gt;&lt;/span&gt;&lt;/span&gt;&lt;/a&gt;&lt;a class=&quot;link dark-text&quot; style=&quot;box-sizing: border-box ; background-color: transparent ; cursor: pointer ; padding: 0px ; margin: 0px&quot;&gt;&lt;span class=&quot;&quot; style=&quot;box-sizing: border-box ; padding: 0px&quot;&gt;shoesChannel_7aa2acf209ade3470fb29b873620d2e5&lt;/span&gt;&lt;/a&gt;&lt;/span&gt;&lt;/span&gt;&lt;br&gt;&lt;/code&gt;&lt;/pre&gt;" style="rounded=0;whiteSpace=wrap;html=1;align=left;" vertex="1" parent="1">
          <mxGeometry x="80" y="280" width="800" height="150" as="geometry" />
        </mxCell>
        <mxCell id="vlLqHwzeVavDZOC4SfYF-13" value="&lt;pre style=&quot;box-sizing: border-box ; font-size: 14px ; background-color: rgb(255 , 255 , 255) ; font-family: &amp;#34;pingfang sc&amp;#34; , &amp;#34;microsoft yahei&amp;#34; &amp;#34;important&amp;#34; ; overflow-wrap: break-word ; word-break: break-all ; padding: 0px ; margin-top: 0px ; margin-bottom: 0px ; background-image: none ; border: none ; color: rgb(50 , 120 , 251)&quot;&gt;&lt;span style=&quot;font-family: &amp;#34;helvetica&amp;#34;&quot;&gt;urlinfo:&lt;/span&gt;&lt;/pre&gt;&lt;pre style=&quot;box-sizing: border-box ; font-size: 14px ; background-color: rgb(255 , 255 , 255) ; overflow-wrap: break-word ; word-break: break-all ; padding: 0px ; margin-top: 0px ; margin-bottom: 0px ; background-image: none ; border: none&quot;&gt;&lt;pre style=&quot;color: rgb(50 , 120 , 251) ; box-sizing: border-box ; overflow-wrap: break-word ; word-break: break-all ; padding: 0px ; margin-top: 0px ; margin-bottom: 0px ; background-image: none ; border: none&quot;&gt;&lt;code style=&quot;box-sizing: border-box ; overflow-wrap: break-word ; word-break: break-all ; padding: 0px ; margin: 0px ; background: none ; border: none&quot;&gt;shihuo://www.shihuo.cn?route=shoesChannel&amp;amp;channelType=shoes&amp;amp;gender=1&amp;amp;type=1&amp;amp;&lt;/code&gt;&amp;amp;fromRequestId=&lt;/pre&gt;&lt;pre style=&quot;box-sizing: border-box ; overflow-wrap: break-word ; word-break: break-all ; padding: 0px ; margin-top: 0px ; margin-bottom: 0px ; background-image: none ; border: none&quot;&gt;&lt;font color=&quot;#3278fb&quot;&gt;99d4bfbeafcef053&amp;amp;&lt;/font&gt;&lt;font color=&quot;#cc0000&quot;&gt;tpExtra={&quot;sourceTp&quot;:&quot;home:icon:1&quot;,&quot;sourceTpName&quot;:&quot;鞋类&quot;,&lt;/font&gt;&lt;/pre&gt;&lt;pre style=&quot;box-sizing: border-box ; overflow-wrap: break-word ; word-break: break-all ; padding: 0px ; margin-top: 0px ; margin-bottom: 0px ; background-image: none ; border: none&quot;&gt;&lt;font color=&quot;#cc0000&quot;&gt;&quot;fReqId&quot;:&quot;99d4bfbeafcef053&quot;,&quot;fTp&quot;:&quot;home:icon:1&quot;,&quot;fTpName&quot;:&quot;鞋类&quot;,&quot;ffTp&quot;:&quot;&quot;,&quot;ffTpName&quot;:&quot;&quot;,&lt;/font&gt;&lt;/pre&gt;&lt;pre style=&quot;box-sizing: border-box ; overflow-wrap: break-word ; word-break: break-all ; padding: 0px ; margin-top: 0px ; margin-bottom: 0px ; background-image: none ; border: none&quot;&gt;&lt;font color=&quot;#cc0000&quot;&gt;&quot;ffReqId&quot;:&quot;&quot;}&lt;/font&gt;&lt;font color=&quot;#3278fb&quot;&gt;&amp;amp;lspm=4b6787ab542c5652&lt;/font&gt;&lt;/pre&gt;&lt;pre style=&quot;color: rgb(50 , 120 , 251) ; box-sizing: border-box ; overflow-wrap: break-word ; word-break: break-all ; padding: 0px ; margin-top: 0px ; margin-bottom: 0px ; background-image: none ; border: none&quot;&gt;&lt;code style=&quot;box-sizing: border-box ; overflow-wrap: break-word ; word-break: break-all ; padding: 0px ; margin: 0px ; background: none ; border: none&quot;&gt;#{&quot;lspm&quot;:&quot;4b6787ab542c5652&quot;,&lt;/code&gt;&lt;code style=&quot;background: none ; white-space: normal ; box-sizing: border-box ; overflow-wrap: break-word ; word-break: break-all ; padding: 0px ; margin: 0px ; border: none&quot;&gt;&quot;from&quot;:&quot;home&quot;,&quot;block&quot;:&quot;shoes&quot;,&quot;extra&quot;:&quot;&quot;&lt;/code&gt;&lt;span style=&quot;font-family: &amp;#34;helvetica&amp;#34; ; white-space: normal&quot;&gt;&quot;}&lt;/span&gt;&lt;/pre&gt;&lt;/pre&gt;&lt;pre style=&quot;box-sizing: border-box ; font-size: 14px ; background-color: rgb(255 , 255 , 255) ; overflow-wrap: break-word ; word-break: break-all ; padding: 0px ; margin-top: 0px ; margin-bottom: 0px ; background-image: none ; border: none&quot;&gt;&lt;code style=&quot;box-sizing: border-box ; overflow-wrap: break-word ; word-break: break-all ; padding: 0px ; margin: 0px ; background: none ; border: none&quot;&gt;&lt;div class=&quot;dark-keys-color src-components-LogSearch-BaseSearch-RawLog-OriginMode-__keys__1hDhhL&quot; style=&quot;box-sizing: border-box ; display: inline-flex ; color: rgb(51 , 51 , 51) ; font-size: 12px ; background-color: rgba(0 , 86 , 144 , 0.1) ; border-radius: 2px ; margin: 2px 0px ; font-family: &amp;#34;roboto mono&amp;#34; , &amp;#34;consolas&amp;#34; , &amp;#34;menlo&amp;#34; , &amp;#34;courier&amp;#34; , monospace ; padding: 1px 3px&quot;&gt;&lt;br&gt;&lt;span style=&quot;color: rgb(204 , 0 , 0)&quot;&gt;refer&lt;/span&gt;&lt;/div&gt;&lt;span style=&quot;color: rgb(55 , 61 , 65) ; font-family: &amp;#34;roboto mono&amp;#34; , &amp;#34;consolas&amp;#34; , &amp;#34;menlo&amp;#34; , &amp;#34;courier&amp;#34; , monospace ; font-size: 12px&quot;&gt;:&quot;&lt;/span&gt;&lt;span class=&quot;normal-column-cell&quot; style=&quot;box-sizing: border-box ; padding: 0px ; color: rgb(55 , 61 , 65) ; font-family: &amp;#34;roboto mono&amp;#34; , &amp;#34;consolas&amp;#34; , &amp;#34;menlo&amp;#34; , &amp;#34;courier&amp;#34; , monospace ; font-size: 12px&quot;&gt;&lt;span style=&quot;box-sizing: border-box ; padding: 0px&quot;&gt;&lt;a class=&quot;link dark-text&quot; style=&quot;box-sizing: border-box ; background-color: transparent ; cursor: pointer ; padding: 0px ; margin: 0px&quot;&gt;&lt;span class=&quot;&quot; style=&quot;box-sizing: border-box ; padding: 0px&quot;&gt;shihuo%3A%2F%2Fwww.shihuo.cn%3Froute%3Dsh_home&quot;&lt;br&gt;&lt;/span&gt;&lt;/a&gt;&lt;/span&gt;&lt;/span&gt;&lt;div class=&quot;dark-keys-color src-components-LogSearch-BaseSearch-RawLog-OriginMode-__keys__1hDhhL&quot; style=&quot;box-sizing: border-box ; display: inline-flex ; font-size: 12px ; background-color: rgba(0 , 86 , 144 , 0.1) ; border-radius: 2px ; margin: 2px 0px ; font-family: &amp;#34;roboto mono&amp;#34; , &amp;#34;consolas&amp;#34; , &amp;#34;menlo&amp;#34; , &amp;#34;courier&amp;#34; , monospace ; padding: 1px 3px&quot;&gt;&lt;font color=&quot;#cc0000&quot;&gt;pid&lt;/font&gt;&lt;/div&gt;&lt;span style=&quot;color: rgb(55 , 61 , 65) ; font-family: &amp;#34;roboto mono&amp;#34; , &amp;#34;consolas&amp;#34; , &amp;#34;menlo&amp;#34; , &amp;#34;courier&amp;#34; , monospace ; font-size: 12px&quot;&gt;:&lt;/span&gt;&lt;span class=&quot;normal-column-cell&quot; style=&quot;box-sizing: border-box ; padding: 0px ; color: rgb(55 , 61 , 65) ; font-family: &amp;#34;roboto mono&amp;#34; , &amp;#34;consolas&amp;#34; , &amp;#34;menlo&amp;#34; , &amp;#34;courier&amp;#34; , monospace ; font-size: 12px&quot;&gt;&lt;span style=&quot;box-sizing: border-box ; padding: 0px&quot;&gt;&lt;a class=&quot;link dark-text&quot; style=&quot;box-sizing: border-box ; background-color: transparent ; cursor: pointer ; padding: 0px ; margin: 0px&quot;&gt;&lt;span class=&quot;&quot; style=&quot;box-sizing: border-box ; padding: 0px&quot;&gt;sh_home_3f7d9261d6b8098ba6cc1d4fcb491f32&lt;/span&gt;&lt;/a&gt;&lt;/span&gt;&lt;/span&gt;&lt;/code&gt;&lt;/pre&gt;&lt;pre style=&quot;box-sizing: border-box ; font-size: 14px ; background-color: rgb(255 , 255 , 255) ; overflow-wrap: break-word ; word-break: break-all ; padding: 0px ; margin-top: 0px ; margin-bottom: 0px ; background-image: none ; border: none&quot;&gt;&lt;code style=&quot;box-sizing: border-box ; overflow-wrap: break-word ; word-break: break-all ; padding: 0px ; margin: 0px ; background: none ; border: none&quot;&gt;&lt;span class=&quot;normal-column-cell&quot; style=&quot;box-sizing: border-box ; padding: 0px ; font-family: &amp;#34;roboto mono&amp;#34; , &amp;#34;consolas&amp;#34; , &amp;#34;menlo&amp;#34; , &amp;#34;courier&amp;#34; , monospace ; font-size: 12px&quot;&gt;&lt;span style=&quot;box-sizing: border-box ; padding: 0px&quot;&gt;&lt;a class=&quot;link dark-text&quot; style=&quot;box-sizing: border-box ; background-color: transparent ; cursor: pointer ; padding: 0px ; margin: 0px&quot;&gt;&lt;span class=&quot;&quot; style=&quot;box-sizing: border-box ; padding: 0px&quot;&gt;&lt;div class=&quot;dark-keys-color src-components-LogSearch-BaseSearch-RawLog-OriginMode-__keys__1hDhhL&quot; style=&quot;box-sizing: border-box ; display: inline-flex ; background-color: rgba(0 , 86 , 144 , 0.1) ; border-radius: 2px ; margin: 2px 0px ; font-family: &amp;#34;roboto mono&amp;#34; , &amp;#34;consolas&amp;#34; , &amp;#34;menlo&amp;#34; , &amp;#34;courier&amp;#34; , monospace ; padding: 1px 3px&quot;&gt;&lt;font color=&quot;#cc0000&quot;&gt;urlinfo_pid&lt;/font&gt;&lt;/div&gt;&lt;span style=&quot;color: rgb(55 , 61 , 65) ; font-family: &amp;#34;roboto mono&amp;#34; , &amp;#34;consolas&amp;#34; , &amp;#34;menlo&amp;#34; , &amp;#34;courier&amp;#34; , monospace&quot;&gt;:&lt;/span&gt;&lt;span class=&quot;normal-column-cell&quot; style=&quot;color: rgb(55 , 61 , 65) ; box-sizing: border-box ; padding: 0px ; font-family: &amp;#34;roboto mono&amp;#34; , &amp;#34;consolas&amp;#34; , &amp;#34;menlo&amp;#34; , &amp;#34;courier&amp;#34; , monospace&quot;&gt;&lt;span style=&quot;box-sizing: border-box ; padding: 0px&quot;&gt;&lt;/span&gt;&lt;/span&gt;&lt;/span&gt;&lt;/a&gt;&lt;a class=&quot;link dark-text&quot; style=&quot;box-sizing: border-box ; background-color: transparent ; cursor: pointer ; padding: 0px ; margin: 0px&quot;&gt;&lt;span class=&quot;&quot; style=&quot;box-sizing: border-box ; padding: 0px&quot;&gt;shoesChannel_7aa2acf209ade3470fb29b873620d2e5&lt;/span&gt;&lt;/a&gt;&lt;/span&gt;&lt;/span&gt;&lt;br&gt;&lt;/code&gt;&lt;/pre&gt;" style="rounded=0;whiteSpace=wrap;html=1;align=left;" vertex="1" parent="1">
          <mxGeometry x="80" y="493" width="800" height="170" as="geometry" />
        </mxCell>
        <mxCell id="vlLqHwzeVavDZOC4SfYF-14" value="&lt;pre style=&quot;font-style: normal ; font-weight: 400 ; letter-spacing: normal ; text-align: left ; text-indent: 0px ; text-transform: none ; word-spacing: 0px ; box-sizing: border-box ; font-size: 14px ; background-color: rgb(255 , 255 , 255) ; overflow-wrap: break-word ; word-break: break-all ; padding: 0px ; margin-top: 0px ; margin-bottom: 0px ; background-image: none ; border: none ; color: rgb(50 , 120 , 251)&quot;&gt;&lt;span style=&quot;font-family: &amp;#34;helvetica&amp;#34;&quot;&gt;urlinfo:&lt;/span&gt;&lt;/pre&gt;&lt;pre style=&quot;text-align: left ; text-indent: 0px ; box-sizing: border-box ; background-color: rgb(255 , 255 , 255) ; overflow-wrap: break-word ; word-break: break-all ; padding: 0px ; margin-top: 0px ; margin-bottom: 0px ; background-image: none ; border: none&quot;&gt;&lt;font color=&quot;#3278fb&quot; face=&quot;helvetica&quot;&gt;&lt;span style=&quot;font-size: 14px&quot;&gt;shihuo://www.shihuo.cn?route=goddessDetail&amp;amp;id=655516&amp;amp;source=goddess#{&quot;from&quot;:&quot;shihuo://www.shihuo.cn?route=fax_home&quot;,&lt;/span&gt;&lt;/font&gt;&lt;/pre&gt;&lt;pre style=&quot;text-align: left ; text-indent: 0px ; box-sizing: border-box ; background-color: rgb(255 , 255 , 255) ; overflow-wrap: break-word ; word-break: break-all ; padding: 0px ; margin-top: 0px ; margin-bottom: 0px ; background-image: none ; border: none&quot;&gt;&lt;font color=&quot;#3278fb&quot; face=&quot;helvetica&quot;&gt;&lt;span style=&quot;font-size: 14px&quot;&gt;&quot;block&quot;:&quot;personal_recommend&quot;,&quot;extra&quot;:&quot;655516&quot;,&quot;tab&quot;:&quot;推荐&quot;,&lt;/span&gt;&lt;/font&gt;&lt;/pre&gt;&lt;pre style=&quot;text-align: left ; text-indent: 0px ; box-sizing: border-box ; background-color: rgb(255 , 255 , 255) ; overflow-wrap: break-word ; word-break: break-all ; padding: 0px ; margin-top: 0px ; margin-bottom: 0px ; background-image: none ; border: none&quot;&gt;&lt;font color=&quot;#3278fb&quot; face=&quot;helvetica&quot;&gt;&lt;span style=&quot;font-size: 14px&quot;&gt;&quot;dg_request_id&quot;:&quot;DG1608104324522092&quot;,&quot;scene&quot;:&quot;COMMUNITY_TAB_PERSONAL&quot;}&lt;br&gt;&lt;/span&gt;&lt;/font&gt;&lt;/pre&gt;&lt;pre style=&quot;color: rgb(0 , 0 , 0) ; font-style: normal ; font-weight: 400 ; letter-spacing: normal ; text-align: left ; text-indent: 0px ; text-transform: none ; word-spacing: 0px ; box-sizing: border-box ; font-size: 14px ; background-color: rgb(255 , 255 , 255) ; overflow-wrap: break-word ; word-break: break-all ; padding: 0px ; margin-top: 0px ; margin-bottom: 0px ; background-image: none ; border: none&quot;&gt;&lt;code style=&quot;box-sizing: border-box ; overflow-wrap: break-word ; word-break: break-all ; padding: 0px ; margin: 0px ; background: none ; border: none&quot;&gt;&lt;div class=&quot;dark-keys-color src-components-LogSearch-BaseSearch-RawLog-OriginMode-__keys__1hDhhL&quot; style=&quot;box-sizing: border-box ; display: inline-flex ; color: rgb(51 , 51 , 51) ; font-size: 12px ; background-color: rgba(0 , 86 , 144 , 0.1) ; border-radius: 2px ; margin: 2px 0px ; font-family: &amp;#34;roboto mono&amp;#34; , &amp;#34;consolas&amp;#34; , &amp;#34;menlo&amp;#34; , &amp;#34;courier&amp;#34; , monospace ; padding: 1px 3px&quot;&gt;&lt;br&gt;&lt;span style=&quot;color: rgb(204 , 0 , 0)&quot;&gt;refer&lt;/span&gt;&lt;/div&gt;&lt;span style=&quot;color: rgb(55 , 61 , 65) ; font-family: &amp;#34;roboto mono&amp;#34; , &amp;#34;consolas&amp;#34; , &amp;#34;menlo&amp;#34; , &amp;#34;courier&amp;#34; , monospace ; font-size: 12px&quot;&gt;:&quot;&lt;/span&gt;&lt;span class=&quot;normal-column-cell&quot; style=&quot;box-sizing: border-box ; padding: 0px ; color: rgb(55 , 61 , 65) ; font-family: &amp;#34;roboto mono&amp;#34; , &amp;#34;consolas&amp;#34; , &amp;#34;menlo&amp;#34; , &amp;#34;courier&amp;#34; , monospace ; font-size: 12px&quot;&gt;&lt;span style=&quot;box-sizing: border-box ; padding: 0px&quot;&gt;&lt;a class=&quot;link dark-text&quot; style=&quot;box-sizing: border-box ; background-color: transparent ; cursor: pointer ; padding: 0px ; margin: 0px&quot;&gt;&lt;span class=&quot;&quot; style=&quot;box-sizing: border-box ; padding: 0px&quot;&gt;shihuo%3A%2F%2Fwww.shihuo.cn%3Froute%3Dsh_home&quot;&lt;br&gt;&lt;/span&gt;&lt;/a&gt;&lt;/span&gt;&lt;/span&gt;&lt;div class=&quot;dark-keys-color src-components-LogSearch-BaseSearch-RawLog-OriginMode-__keys__1hDhhL&quot; style=&quot;box-sizing: border-box ; display: inline-flex ; font-size: 12px ; background-color: rgba(0 , 86 , 144 , 0.1) ; border-radius: 2px ; margin: 2px 0px ; font-family: &amp;#34;roboto mono&amp;#34; , &amp;#34;consolas&amp;#34; , &amp;#34;menlo&amp;#34; , &amp;#34;courier&amp;#34; , monospace ; padding: 1px 3px&quot;&gt;&lt;font color=&quot;#cc0000&quot;&gt;pid&lt;/font&gt;&lt;/div&gt;&lt;span style=&quot;color: rgb(55 , 61 , 65) ; font-family: &amp;#34;roboto mono&amp;#34; , &amp;#34;consolas&amp;#34; , &amp;#34;menlo&amp;#34; , &amp;#34;courier&amp;#34; , monospace ; font-size: 12px&quot;&gt;:&lt;/span&gt;&lt;span class=&quot;normal-column-cell&quot; style=&quot;box-sizing: border-box ; padding: 0px ; color: rgb(55 , 61 , 65) ; font-family: &amp;#34;roboto mono&amp;#34; , &amp;#34;consolas&amp;#34; , &amp;#34;menlo&amp;#34; , &amp;#34;courier&amp;#34; , monospace ; font-size: 12px&quot;&gt;&lt;span style=&quot;box-sizing: border-box ; padding: 0px&quot;&gt;&lt;a class=&quot;link dark-text&quot; style=&quot;box-sizing: border-box ; background-color: transparent ; cursor: pointer ; padding: 0px ; margin: 0px&quot;&gt;&lt;span class=&quot;&quot; style=&quot;box-sizing: border-box ; padding: 0px&quot;&gt;sh_home_3f7d9261d6b8098ba6cc1d4fcb491f32&lt;/span&gt;&lt;/a&gt;&lt;/span&gt;&lt;/span&gt;&lt;/code&gt;&lt;/pre&gt;&lt;pre style=&quot;color: rgb(0 , 0 , 0) ; font-style: normal ; font-weight: 400 ; letter-spacing: normal ; text-align: left ; text-indent: 0px ; text-transform: none ; word-spacing: 0px ; box-sizing: border-box ; font-size: 14px ; background-color: rgb(255 , 255 , 255) ; overflow-wrap: break-word ; word-break: break-all ; padding: 0px ; margin-top: 0px ; margin-bottom: 0px ; background-image: none ; border: none&quot;&gt;&lt;code style=&quot;box-sizing: border-box ; overflow-wrap: break-word ; word-break: break-all ; padding: 0px ; margin: 0px ; background: none ; border: none&quot;&gt;&lt;span class=&quot;normal-column-cell&quot; style=&quot;box-sizing: border-box ; padding: 0px ; font-family: &amp;#34;roboto mono&amp;#34; , &amp;#34;consolas&amp;#34; , &amp;#34;menlo&amp;#34; , &amp;#34;courier&amp;#34; , monospace ; font-size: 12px&quot;&gt;&lt;span style=&quot;box-sizing: border-box ; padding: 0px&quot;&gt;&lt;a class=&quot;link dark-text&quot; style=&quot;box-sizing: border-box ; background-color: transparent ; cursor: pointer ; padding: 0px ; margin: 0px&quot;&gt;&lt;span class=&quot;&quot; style=&quot;box-sizing: border-box ; padding: 0px&quot;&gt;&lt;div class=&quot;dark-keys-color src-components-LogSearch-BaseSearch-RawLog-OriginMode-__keys__1hDhhL&quot; style=&quot;box-sizing: border-box ; display: inline-flex ; background-color: rgba(0 , 86 , 144 , 0.1) ; border-radius: 2px ; margin: 2px 0px ; font-family: &amp;#34;roboto mono&amp;#34; , &amp;#34;consolas&amp;#34; , &amp;#34;menlo&amp;#34; , &amp;#34;courier&amp;#34; , monospace ; padding: 1px 3px&quot;&gt;&lt;font color=&quot;#cc0000&quot;&gt;urlinfo_pid&lt;/font&gt;&lt;/div&gt;&lt;span style=&quot;color: rgb(55 , 61 , 65) ; font-family: &amp;#34;roboto mono&amp;#34; , &amp;#34;consolas&amp;#34; , &amp;#34;menlo&amp;#34; , &amp;#34;courier&amp;#34; , monospace&quot;&gt;:&lt;/span&gt;&lt;span class=&quot;normal-column-cell&quot; style=&quot;color: rgb(55 , 61 , 65) ; box-sizing: border-box ; padding: 0px ; font-family: &amp;#34;roboto mono&amp;#34; , &amp;#34;consolas&amp;#34; , &amp;#34;menlo&amp;#34; , &amp;#34;courier&amp;#34; , monospace&quot;&gt;&lt;span style=&quot;box-sizing: border-box ; padding: 0px&quot;&gt;&lt;/span&gt;&lt;/span&gt;&lt;/span&gt;&lt;/a&gt;&lt;a class=&quot;link dark-text&quot; style=&quot;box-sizing: border-box ; background-color: transparent ; cursor: pointer ; padding: 0px ; margin: 0px&quot;&gt;&lt;span class=&quot;&quot; style=&quot;box-sizing: border-box ; padding: 0px&quot;&gt;shoesChannel_7aa2acf209ade3470fb29b873620d2e5&lt;/span&gt;&lt;/a&gt;&lt;/span&gt;&lt;/span&gt;&lt;/code&gt;&lt;/pre&gt;&lt;pre style=&quot;color: rgb(0 , 0 , 0) ; font-style: normal ; font-weight: 400 ; letter-spacing: normal ; text-align: left ; text-indent: 0px ; text-transform: none ; word-spacing: 0px ; box-sizing: border-box ; background-color: rgb(255 , 255 , 255) ; overflow-wrap: break-word ; word-break: break-all ; padding: 0px ; margin-top: 0px ; margin-bottom: 0px ; background-image: none ; border: none&quot;&gt;&lt;div class=&quot;dark-keys-color src-components-LogSearch-BaseSearch-RawLog-OriginMode-__keys__1hDhhL&quot; style=&quot;box-sizing: border-box ; display: inline-flex ; color: rgb(51 , 51 , 51) ; background-color: rgba(0 , 86 , 144 , 0.1) ; border-radius: 2px ; margin: 2px 0px ; font-family: &amp;#34;roboto mono&amp;#34; , &amp;#34;consolas&amp;#34; , &amp;#34;menlo&amp;#34; , &amp;#34;courier&amp;#34; , monospace ; padding: 1px 3px&quot;&gt;pti&lt;/div&gt;&lt;span style=&quot;color: rgb(55 , 61 , 65) ; font-family: &amp;#34;roboto mono&amp;#34; , &amp;#34;consolas&amp;#34; , &amp;#34;menlo&amp;#34; , &amp;#34;courier&amp;#34; , monospace&quot;&gt;:&lt;/span&gt;&lt;span class=&quot;normal-column-cell&quot; style=&quot;box-sizing: border-box ; padding: 0px ; color: rgb(55 , 61 , 65) ; font-family: &amp;#34;roboto mono&amp;#34; , &amp;#34;consolas&amp;#34; , &amp;#34;menlo&amp;#34; , &amp;#34;courier&amp;#34; , monospace&quot;&gt;&lt;span style=&quot;box-sizing: border-box ; padding: 0px&quot;&gt;&lt;a class=&quot;link dark-text&quot; style=&quot;box-sizing: border-box ; background-color: transparent ; cursor: pointer ; padding: 0px ; margin: 0px&quot;&gt;&lt;span class=&quot;&quot; style=&quot;box-sizing: border-box ; padding: 0px&quot;&gt;{&lt;/span&gt;&lt;/a&gt;&lt;br style=&quot;box-sizing: border-box&quot;&gt;&lt;/span&gt;&lt;span style=&quot;box-sizing: border-box ; padding: 0px&quot;&gt;&lt;a class=&quot;link dark-text&quot; style=&quot;box-sizing: border-box ; background-color: transparent ; cursor: pointer ; padding: 0px ; margin: 0px&quot;&gt;&lt;span class=&quot;&quot; style=&quot;box-sizing: border-box ; padding: 0px&quot;&gt;  &quot;root&quot; : {&lt;/span&gt;&lt;/a&gt;&lt;br style=&quot;box-sizing: border-box&quot;&gt;&lt;/span&gt;&lt;span style=&quot;box-sizing: border-box ; padding: 0px&quot;&gt;&lt;a class=&quot;link dark-text&quot; style=&quot;box-sizing: border-box ; background-color: transparent ; cursor: pointer ; padding: 0px ; margin: 0px&quot;&gt;&lt;span class=&quot;&quot; style=&quot;box-sizing: border-box ; padding: 0px&quot;&gt;    &quot;id&quot; : &quot;bbshome:tab:1:feed:1&quot;,&lt;/span&gt;&lt;/a&gt;&lt;br style=&quot;box-sizing: border-box&quot;&gt;&lt;/span&gt;&lt;span style=&quot;box-sizing: border-box ; padding: 0px&quot;&gt;&lt;a class=&quot;link dark-text&quot; style=&quot;box-sizing: border-box ; background-color: transparent ; cursor: pointer ; padding: 0px ; margin: 0px&quot;&gt;&lt;span class=&quot;&quot; style=&quot;box-sizing: border-box ; padding: 0px&quot;&gt;    &quot;name&quot; : &quot;推荐&quot;,&lt;/span&gt;&lt;/a&gt;&lt;br style=&quot;box-sizing: border-box&quot;&gt;&lt;/span&gt;&lt;span style=&quot;box-sizing: border-box ; padding: 0px&quot;&gt;&lt;a class=&quot;link dark-text&quot; style=&quot;box-sizing: border-box ; background-color: transparent ; cursor: pointer ; padding: 0px ; margin: 0px&quot;&gt;&lt;span class=&quot;&quot; style=&quot;box-sizing: border-box ; padding: 0px&quot;&gt;    &quot;pageId&quot; : &quot;bbs_home_13fdd7f0dd062e29ac91f0c606232036&quot;&lt;/span&gt;&lt;/a&gt;&lt;br style=&quot;box-sizing: border-box&quot;&gt;&lt;/span&gt;&lt;span style=&quot;box-sizing: border-box ; padding: 0px&quot;&gt;&lt;a class=&quot;link dark-text&quot; style=&quot;box-sizing: border-box ; background-color: transparent ; cursor: pointer ; padding: 0px ; margin: 0px&quot;&gt;&lt;span class=&quot;&quot; style=&quot;box-sizing: border-box ; padding: 0px&quot;&gt;  },&lt;/span&gt;&lt;/a&gt;&lt;br style=&quot;box-sizing: border-box&quot;&gt;&lt;/span&gt;&lt;span style=&quot;box-sizing: border-box ; padding: 0px&quot;&gt;&lt;a class=&quot;link dark-text&quot; style=&quot;box-sizing: border-box ; background-color: transparent ; cursor: pointer ; padding: 0px ; margin: 0px&quot;&gt;&lt;span class=&quot;&quot; style=&quot;box-sizing: border-box ; padding: 0px&quot;&gt;  &quot;id&quot; : &quot;bbshome:tab:1:feed:1&quot;,&lt;/span&gt;&lt;/a&gt;&lt;br style=&quot;box-sizing: border-box&quot;&gt;&lt;/span&gt;&lt;span style=&quot;box-sizing: border-box ; padding: 0px&quot;&gt;&lt;a class=&quot;link dark-text&quot; style=&quot;box-sizing: border-box ; background-color: transparent ; cursor: pointer ; padding: 0px ; margin: 0px&quot;&gt;&lt;span class=&quot;&quot; style=&quot;box-sizing: border-box ; padding: 0px&quot;&gt;  &quot;name&quot; : &quot;推荐&quot;,&lt;/span&gt;&lt;/a&gt;&lt;br style=&quot;box-sizing: border-box&quot;&gt;&lt;/span&gt;&lt;span style=&quot;box-sizing: border-box ; padding: 0px&quot;&gt;&lt;a class=&quot;link dark-text&quot; style=&quot;box-sizing: border-box ; background-color: transparent ; cursor: pointer ; padding: 0px ; margin: 0px&quot;&gt;&lt;span class=&quot;&quot; style=&quot;box-sizing: border-box ; padding: 0px&quot;&gt;  &quot;pageId&quot; : &quot;bbs_home_13fdd7f0dd062e29ac91f0c606232036&quot;,&lt;/span&gt;&lt;/a&gt;&lt;br style=&quot;box-sizing: border-box&quot;&gt;&lt;/span&gt;&lt;span style=&quot;box-sizing: border-box ; padding: 0px&quot;&gt;&lt;a class=&quot;link dark-text&quot; style=&quot;box-sizing: border-box ; background-color: transparent ; cursor: pointer ; padding: 0px ; margin: 0px&quot;&gt;&lt;span class=&quot;&quot; style=&quot;box-sizing: border-box ; padding: 0px&quot;&gt;  &quot;parent&quot; : {&lt;/span&gt;&lt;/a&gt;&lt;br style=&quot;box-sizing: border-box&quot;&gt;&lt;/span&gt;&lt;span style=&quot;box-sizing: border-box ; padding: 0px&quot;&gt;&lt;a class=&quot;link dark-text&quot; style=&quot;box-sizing: border-box ; background-color: transparent ; cursor: pointer ; padding: 0px ; margin: 0px&quot;&gt;&lt;span class=&quot;&quot; style=&quot;box-sizing: border-box ; padding: 0px&quot;&gt;&lt;/span&gt;&lt;/a&gt;&lt;br style=&quot;box-sizing: border-box&quot;&gt;&lt;/span&gt;&lt;span style=&quot;box-sizing: border-box ; padding: 0px&quot;&gt;&lt;a class=&quot;link dark-text&quot; style=&quot;box-sizing: border-box ; background-color: transparent ; cursor: pointer ; padding: 0px ; margin: 0px&quot;&gt;&lt;span class=&quot;&quot; style=&quot;box-sizing: border-box ; padding: 0px&quot;&gt;  }&lt;/span&gt;&lt;/a&gt;&lt;br style=&quot;box-sizing: border-box&quot;&gt;&lt;/span&gt;&lt;span style=&quot;box-sizing: border-box ; padding: 0px&quot;&gt;&lt;a class=&quot;link dark-text&quot; style=&quot;box-sizing: border-box ; background-color: transparent ; cursor: pointer ; padding: 0px ; margin: 0px&quot;&gt;&lt;span class=&quot;&quot; style=&quot;box-sizing: border-box ; padding: 0px&quot;&gt;}&lt;/span&gt;&lt;/a&gt;&lt;/span&gt;&lt;/span&gt;&lt;br&gt;&lt;/pre&gt;" style="rounded=0;whiteSpace=wrap;html=1;align=left;" vertex="1" parent="1">
          <mxGeometry x="80" y="720" width="800" height="320" as="geometry" />
        </mxCell>
        <mxCell id="vlLqHwzeVavDZOC4SfYF-18" value="覆盖社区" style="text;html=1;strokeColor=none;fillColor=none;align=center;verticalAlign=middle;whiteSpace=wrap;rounded=0;" vertex="1" parent="1">
          <mxGeometry x="810" y="690" width="60" height="20" as="geometry" />
        </mxCell>
        <mxCell id="vlLqHwzeVavDZOC4SfYF-19" value="覆盖流量分发" style="text;html=1;strokeColor=none;fillColor=none;align=center;verticalAlign=middle;whiteSpace=wrap;rounded=0;" vertex="1" parent="1">
          <mxGeometry x="790" y="460" width="80" height="20" as="geometry" />
        </mxCell>
      </root>
    </mxGraphModel>
  </diagram>
</mxfile>
